{
  "accessors": [
    {
      "bufferView": 2,
      "componentType": 5126,
      "count": 2600,
      "max": [
        1.0744980573654175,
        0.1953742951154709,
        2.1627659797668457
      ],
      "min": [
        -1.0744980573654175,
        -0.23613479733467102,
        0.0006155060254968703
      ],
      "type": "VEC3"
    },
    {
      "bufferView": 2,
      "byteOffset": 31200,
      "componentType": 5126,
      "count": 2600,
      "max": [
        0.9993239045143127,
        0.9999673962593079,
        0.9999197721481323
      ],
      "min": [
        -0.9993239045143127,
        -1.0,
        -1.0
      ],
      "type": "VEC3"
    },
    {
      "bufferView": 1,
      "componentType": 5126,
      "count": 2600,
      "max": [
        0.9874765276908875,
        0.9911044836044312
      ],
      "min": [
        0.0,
        0.0
      ],
      "type": "VEC2"
    },
    {
      "bufferView": 0,
      "componentType": 5125,
      "count": 12804,
      "type": "SCALAR"
    },
    {
      "bufferView": 2,
      "byteOffset": 62400,
      "componentType": 5126,
      "count": 130,
      "max": [
        0.09356331080198288,
        -0.15721319615840912,
        2.018181085586548
      ],
      "min": [
        -0.09356331080198288,
        -0.1803646981716156,
        1.9514139890670776
      ],
      "type": "VEC3"
    },
    {
      "bufferView": 2,
      "byteOffset": 63960,
      "componentType": 5126,
      "count": 130,
      "max": [
        0.8659507036209106,
        -0.43913719058036804,
        0.8287491202354431
      ],
      "min": [
        -0.8659507036209106,
        -0.9949148893356323,
        -0.8918375968933105
      ],
      "type": "VEC3"
    },
    {
      "bufferView": 1,
      "byteOffset": 20800,
      "componentType": 5126,
      "count": 130,
      "max": [
        0.9939996004104614,
        0.9970998167991638
      ],
      "min": [
        0.004249751102179289,
        0.0029368989635258913
      ],
      "type": "VEC2"
    },
    {
      "bufferView": 0,
      "byteOffset": 51216,
      "componentType": 5125,
      "count": 672,
      "type": "SCALAR"
    }
  ],
  "asset": {
    "extras": {
      "author": "Weasel On A Stick (https://sketchfab.com/woas)",
      "license": "CC-BY-NC-4.0 (http://creativecommons.org/licenses/by-nc/4.0/)",
      "source": "https://sketchfab.com/3d-models/handsome-squidward-5f1513ff8d8d4ee485cf7c4da6b75cb6",
      "title": "Handsome Squidward"
    },
    "generator": "Sketchfab-12.63.0",
    "version": "2.0"
  },
  "bufferViews": [
    {
      "buffer": 0,
      "byteLength": 53904,
      "name": "floatBufferViews",
      "target": 34963
    },
    {
      "buffer": 0,
      "byteLength": 21840,
      "byteOffset": 53904,
      "byteStride": 8,
      "name": "floatBufferViews",
      "target": 34962
    },
    {
      "buffer": 0,
      "byteLength": 65520,
      "byteOffset": 75744,
      "byteStride": 12,
      "name": "floatBufferViews",
      "target": 34962
    }
  ],
  "buffers": [
    {
      "byteLength": 141264,
      "uri": "scene.bin"
    }
  ],
  "images": [
    {
      "uri": "textures/squidmat_baseColor.jpeg"
    },
    {
      "uri": "textures/eyemat_baseColor.jpeg"
    }
  ],
  "materials": [
    {
      "doubleSided": true,
      "name": "squidmat",
      "pbrMetallicRoughness": {
        "baseColorTexture": {
          "index": 0
        },
        "metallicFactor": 0.0
      }
    },
    {
      "doubleSided": true,
      "name": "eyemat",
      "pbrMetallicRoughness": {
        "baseColorTexture": {
          "index": 1
        },
        "metallicFactor": 0.0,
        "roughnessFactor": 0.3173105570046635
      }
    }
  ],
  "meshes": [
    {
      "name": "squidmat-material",
      "primitives": [
        {
          "attributes": {
            "NORMAL": 1,
            "POSITION": 0,
            "TEXCOORD_0": 2
          },
          "indices": 3,
          "material": 0,
          "mode": 4
        }
      ]
    },
    {
      "name": "eyemat-material",
      "primitives": [
        {
          "attributes": {
            "NORMAL": 5,
            "POSITION": 4,
            "TEXCOORD_0": 6
          },
          "indices": 7,
          "material": 1,
          "mode": 4
        }
      ]
    }
  ],
  "nodes": [
    {
      "children": [
        1
      ],
      "matrix": [
        1.0,
        0.0,
        0.0,
        0.0,
        0.0,
        2.220446049250313e-16,
        -1.0,
        0.0,
        0.0,
        1.0,
        2.220446049250313e-16,
        0.0,
        0.0,
        0.0,
        0.0,
        1.0
      ],
      "name": "Sketchfab_model"
    },
    {
      "children": [
        2
      ],
      "name": "Collada visual scene group"
    },
    {
      "children": [
        3,
        4
      ],
      "name": "handsward"
    },
    {
      "mesh": 0,
      "name": "squidmat-material"
    },
    {
      "mesh": 1,
      "name": "eyemat-material"
    }
  ],
  "samplers": [
    {
      "magFilter": 9729,
      "minFilter": 9987,
      "wrapS": 10497,
      "wrapT": 10497
    }
  ],
  "scene": 0,
  "scenes": [
    {
      "name": "Sketchfab_Scene",
      "nodes": [
        0
      ]
    }
  ],
  "textures": [
    {
      "sampler": 0,
      "source": 0
    },
    {
      "sampler": 0,
      "source": 1
    }
  ]
}
